<?xml version="1.0" encoding="utf-8"?>
<svg fill="none" height="24" viewBox="0 0 24 24" width="24" xmlns="http://www.w3.org/2000/svg">
  <path clip-rule="evenodd" d="m17.4161 6.25006c.0277.00003.0557.00006.0839.00006s.0562-.00003.0839-.00006c.3808-.00041.7093-.00075.9984.07672.7765.20805 1.383.81454 1.591 1.59099l-.7019.18808.7019-.18808c.0775.28915.0772.61768.0768.99847-.0001.02768-.0001.05564-.0001.08388v.26121c1.4016.12631 2.5 1.30427 2.5 2.73877s-1.0984 2.6125-2.5 2.7388v.2612c0 .0283 0 .0562.0001.0839.0004.3808.0007.7093-.0768.9985-.208.7764-.8145 1.3829-1.591 1.591-.2891.0774-.6176.0771-.9984.0767-.0277-.0001-.0557-.0001-.0839-.0001s-.0562 0-.0839.0001c-.3808.0004-.7093.0007-.9984-.0767-.7765-.2081-1.383-.8146-1.591-1.591-.0775-.2892-.0772-.6177-.0768-.9985.0001-.0277.0001-.0556.0001-.0839v-2.25h-5.5v2.25c0 .0283.00003.0562.00006.0839.0004.3808.00075.7093-.07673.9985-.20805.7764-.81453 1.3829-1.59099 1.591-.28914.0774-.61767.0771-.99846.0767-.02768-.0001-.05564-.0001-.08388-.0001s-.0562 0-.08388.0001c-.38079.0004-.70932.0007-.99846-.0767-.77646-.2081-1.38294-.8146-1.59099-1.591-.07748-.2892-.07713-.6177-.07673-.9985.00003-.0277.00006-.0556.00006-.0839v-.2612c-1.40163-.1263-2.5-1.3043-2.5-2.7388s1.09837-2.61246 2.5-2.73877v-.26121c0-.02824-.00003-.0562-.00006-.08389-.0004-.38079-.00075-.70931.07673-.99846.20805-.77645.81453-1.38294 1.59099-1.59099.28914-.07747.61767-.07712.99846-.07672.02768.00003.05564.00006.08388.00006s.0562-.00003.08388-.00006c.38079-.0004.70932-.00075.99846.07672.77646.20805 1.38294.81454 1.59099 1.59099.07748.28915.07713.61767.07673.99846-.00003.02769-.00006.05565-.00006.08389v2.24998h5.5v-2.24998c0-.02824 0-.0562-.0001-.08389-.0004-.38079-.0007-.70931.0768-.99846.208-.77645.8145-1.38294 1.591-1.59099.2891-.07747.6176-.07713.9984-.07672zm-13.6661 4.52504c-.57056.1158-1 .6203-1 1.225 0 .6048.42944 1.1092 1 1.225zm16.5 2.45c.5706-.1158 1-.6202 1-1.225 0-.6047-.4294-1.1092-1-1.225zm-2.75-5.47498c-.5133 0-.6228.00644-.6941.02555-.2588.06935-.461.27151-.5303.53033l-.7245-.19411.7245.19411c-.0192.07133-.0256.18084-.0256.69412v5.99998c0 .5133.0064.6228.0256.6941.0693.2589.2715.461.5303.5304.0713.0191.1808.0255.6941.0255s.6228-.0064.6941-.0255c.2588-.0694.461-.2715.5303-.5304.0192-.0713.0256-.1808.0256-.6941v-5.99998c0-.51328-.0064-.62278-.0256-.69412-.0693-.25882-.2715-.46098-.5303-.53033-.0713-.01911-.1808-.02555-.6941-.02555zm-11 0c-.51327 0-.62278.00644-.69411.02555-.25882.06935-.46098.27151-.53033.53033-.01912.07134-.02556.18084-.02556.69412v5.99998c0 .5133.00644.6228.02556.6941.06935.2589.27151.461.53033.5304l-.19412.7244.19412-.7244c.07133.0191.18084.0255.69411.0255s.62278-.0064.69411-.0255l.19412.7244-.19412-.7244c.25882-.0694.46098-.2715.53033-.5304.01912-.0713.02556-.1808.02556-.6941v-5.99998c0-.51327-.00644-.62278-.02556-.69412-.06935-.25882-.27151-.46098-.53033-.53033-.07133-.01911-.18084-.02555-.69411-.02555z" fill-rule="evenodd" style="fill: rgb(255, 255, 255);"/>
</svg>