<svg fill="none" height="24" viewBox="0 0 24 24" width="24" xmlns="http://www.w3.org/2000/svg"><g stroke="#FFFFFF" stroke-linecap="round" stroke-linejoin="round" stroke-width="1.5"><path d="m18 3v5m-12-5v5"/><path d="m20.5 4v1.5m0 0v1.5m0-1.5h1.5m-18.5-1.5v1.5m0 0v1.5m0-1.5h-1.5"/><path d="m18 5.5h-12"/><path d="m7.27653 19h9.44697c1.2375 0 1.8562 0 2.1121-.3026.5807-.6867-.5318-1.5943-.9377-2.0518-.4574-.5154-.792-.6456-1.468-.6456h-8.85977c-.67605 0-1.0106.1302-1.46799.6456-.40597.4575-1.51839 1.3651-.9377 2.0518.25582.3026.87458.3026 2.11209.3026z"/><path d="m9 8v8m6-8v8"/><path d="m16 19v2m-8-2v2"/></g></svg>