<svg fill="none" height="24" viewBox="0 0 24 24" width="24" xmlns="http://www.w3.org/2000/svg"><g stroke="#141b34" stroke-width="1.5"><path d="m7.78256 17.1112c-1.10038.6318-3.9855 1.9219-2.22827 3.5362.8584.7886 1.81443 1.3526 3.01639 1.3526h6.85862c1.202 0 2.158-.564 3.0164-1.3526 1.7572-1.6143-1.1279-2.9044-2.2283-3.5362-2.5803-1.4816-5.8545-1.4816-8.43484 0z" stroke-linecap="round" stroke-linejoin="round"/><path d="m15.5 10c0 1.933-1.567 3.5-3.5 3.5s-3.5-1.567-3.5-3.5 1.567-3.5 3.5-3.5 3.5 1.567 3.5 3.5z"/><path d="m2.854 16c-.54899-1.2336-.854-2.599-.854-4.0354 0-5.50331 4.47715-9.9646 10-9.9646 5.5228 0 10 4.46129 10 9.9646 0 1.4364-.305 2.8018-.854 4.0354" stroke-linecap="round"/></g></svg>