<svg fill="none" height="24" viewBox="0 0 24 24" width="24" xmlns="http://www.w3.org/2000/svg"><g stroke="#FFFFFF" stroke-width="1.5"><path d="m13 21.9506c-.3289.0327-.6625.0494-1 .0494-5.52285 0-10-4.4772-10-10 0-5.52285 4.47715-10 10-10 5.5228 0 10 4.47715 10 10 0 .3375-.0167.6711-.0494 1" stroke-linecap="round"/><path d="m7.5 17c1.40247-1.4689 3.5212-2.0959 5.5-1.8059m1.4951-5.6941c0 1.3807-1.1209 2.5-2.5036 2.5-1.3826 0-2.50353-1.1193-2.50353-2.5 0-1.38071 1.12093-2.5 2.50353-2.5 1.3827 0 2.5036 1.11929 2.5036 2.5z" stroke-linecap="round"/><circle cx="18.5" cy="18.5" r="3.5"/></g></svg>