<svg fill="none" height="24" viewBox="0 0 24 24" width="24" xmlns="http://www.w3.org/2000/svg"><path d="m7 9.5c0 .8284-.67157 1.5-1.5 1.5s-1.5-.6716-1.5-1.5c0-.82843.67157-1.5 1.5-1.5s1.5.67157 1.5 1.5z" stroke="#FFFFFF" stroke-width="1.5"/><path d="m9.74246 2.89393c-.05858-.41005-.43848-.69497-.84853-.63639s-.69497.43848-.63639.84853zm-.09587 4.63218-.74247.10606zm-.76418 4.70909.67082.3354zm-2.55323 3.4294c-.18524.3705-.03507.821.33541 1.0062.37048.1853.82099.0351 1.00623-.3354zm10.95112-3.2771.7152-.2258v-.0001zm2.0045 8.8383c.1247.395.5461.6141.941.4894.395-.1247.6141-.5461.4894-.941zm-9.47295-11.25633-.74032-.12014zm6.32865 1.17343-.2877.6926zm-7.03826.6514-.67196-.3331zm2.19556 8.9424c-.1455.3878.051.8201.4389.9655.3878.1455.8201-.051.9655-.4389zm5.6076-9.0323.5746-.482zm-8.64786-8.59833.64658 4.5261 1.48488-.21213-.64654-4.52611zm-.04595 8.79373-1.88241 3.7648 1.34164.6708 1.88241-3.7648zm8.35351.7135 2.7197 8.6125 1.4304-.4516-2.7197-8.6125zm-7.66098-4.98113c.05411.37875.09854.68997.13197.95997l1.48861-.18428c-.0355-.28687-.0822-.61338-.1357-.98782zm.13197.95997c.07586.6129.08547.94886.03544 1.25719l1.48067.24027c.0854-.52668.0524-1.03664-.0275-1.68174zm.45652.60045 6.36019 2.64291.5755-1.3852-6.3601-2.64289zm.06062 3.37801c.07854-.1571.15251-.305.22098-.4431l-1.34393-.6663c-.06711.1354-.13988.281-.21869.4386zm.22098-.4431c.40369-.8143.67329-1.393.77799-2.0379l-1.48067-.24027c-.06306.38857-.22535.77297-.64125 1.61187zm4.14859 1.6092-2.625 7 1.4044.5266 2.625-7zm-5.09872-1.2458 5.52272 2.2056.5564-1.393-5.52279-2.2057zm9.17142-.3293c-.1099-.3479-.2864-.6661-.5155-.9392l-1.1492.964c.1041.1242.1843.2688.2343.4269zm-.5155-.9392c-.2803-.3341-.6394-.6008-1.0517-.7721l-.5755 1.3852c.1873.0778.3505.199.478.3509zm-1.1067-.0465-2.2804 2.2955 1.0642 1.0572 2.2804-2.2956z" fill="#FFFFFF"/></svg>