<svg fill="none" height="24" viewBox="0 0 24 24" width="24" xmlns="http://www.w3.org/2000/svg"><g stroke="#FFFFFF" stroke-width="1.5"><path d="m17 4.5c0 .82843-.6716 1.5-1.5 1.5s-1.5-.67157-1.5-1.5.6716-1.5 1.5-1.5 1.5.67157 1.5 1.5z"/><g stroke-linecap="round" stroke-linejoin="round"><path d="m15 21.0001-.6641-2.616c-.2198-.8657-.6744-1.6564-1.3152-2.2874l-1.5207-1.4976m-5.5-3.4464c1-1.96977 2.53767-3.11113 6-3.15207m0 0c.2186-.00259.5444-.00337.8698-.00331.5049.00008.7573.00012.9584.09408s.4074.34042.82.83335c.1182.14123.2396.26778.3518.35195m-3-1.27607-1.2691 1.9582c-.6977 1.07657-1.04661 1.61487-1.06021 2.18007-.00606.2518.03548.5024.12244.7387.19521.5306.69907.9276 1.70687 1.7215m3.5-5.3224c1.1547.8659 2.9627 1.2146 5-1.0783m-5 1.0783-3.5 5.3224"/><path d="m4 17.7303.67822.1613c1.72841.4112 3.52502-.3752 4.32178-1.8916"/></g></g></svg>