<svg fill="none" height="24" viewBox="0 0 24 24" width="24" xmlns="http://www.w3.org/2000/svg"><g stroke="#FFFFFF" stroke-width="1.5"><path d="m16 5.5c0 .82843-.6716 1.5-1.5 1.5s-1.5-.67157-1.5-1.5.6716-1.5 1.5-1.5 1.5.67157 1.5 1.5z"/><g stroke-linecap="round" stroke-linejoin="round"><path d="m14.3602 15 .9437-.546c1.0747-.6217 1.612-.9326 1.6846-1.3756.0114-.0692.0143-.1393.0088-.209-.0351-.4465-.5449-.7905-1.5644-1.4787l-4.707-3.17711c-1.84872-1.24782-2.27406-3.52245-.97493-5.21359"/><path d="m10.7259 8.21359c-2.50002 2.50001-3.7259 9.41881-3.7259 12.78671m3.7259-12.78671c-1.84872-1.24782-2.27406-3.52245-.97493-5.21359m.97493 5.21359 2.6466 1.78641m.9877 5 .9437-.546c1.0747-.6217 1.612-.9326 1.6846-1.3756.0114-.0692.0143-.1393.0088-.209-.0351-.4465-.5449-.7905-1.5644-1.4787l-2.0604-1.3907m1.6277 11.0003c-.9734-1.1356-1.9745-2.7003-2.95-4.1425-.6836-1.0104-1.0253-1.5156-1.0657-2.0446m2.388-4.8132c-.8028 1.0391-1.3561 2.0207-1.7699 2.8942-.439.9267-.6585 1.3901-.6181 1.919m0 0-2.9845-.8132"/></g></g></svg>