<svg fill="none" height="24" viewBox="0 0 24 24" width="24" xmlns="http://www.w3.org/2000/svg"><g stroke="#FFFFFF" stroke-width="1.5"><path d="m14.5 4.5c0 .82843-.6716 1.5-1.5 1.5s-1.5-.67157-1.5-1.5.6716-1.5 1.5-1.5 1.5.67157 1.5 1.5z"/><g stroke-linecap="round" stroke-linejoin="round"><path d="m19 8.89062-5.0223-.5992m5.0223 12.70858-.4562-3.4699c-.2535-1.928-.3802-2.892-1.0523-3.4003s-1.6193-.3567-3.5138-.0533l-1.8375.2942m1.8375-6.07928-1.7546-.20934c-.8027-.09577-1.204-.14365-1.5085.06211-.3046.20576-.4156.59978-.6376 1.38784l-.6683 2.37197c-.38551 1.3684-.57826 2.0525-.21674 2.4667s1.05454.3033 2.44064.0813l.5076-.0813m1.8375-6.07928-1.8375 6.07928"/><path d="m10 17-.55279 1.1056c-.29029.5806-.76105 1.0513-1.34164 1.3416l-3.10557 1.5528"/></g></g></svg>