<svg fill="none" height="24" viewBox="0 0 24 24" width="24" xmlns="http://www.w3.org/2000/svg"><g stroke="#FFFFFF" stroke-width="1.5"><path d="m7 5.5c0 .82843-.67157 1.5-1.5 1.5s-1.5-.67157-1.5-1.5.67157-1.5 1.5-1.5 1.5.67157 1.5 1.5z"/><path d="m8.94848 14h-.80952c-.81296 0-1.21945 0-1.5005-.237-.28106-.237-.34788-.636-.48153-1.4342l-.07674-.4583c-.0718-.4288-.1077-.6432-.05522-.8474.05249-.2043.18741-.3752.45724-.717l1.2491-1.58239m2.0544-2.72371-1.0884 1.5-.966 1.22371m2.0544-2.72371 2.17679-3m-2.17679 3 4.50019 3.5m0 0 5.7141-6.5m-5.7141 6.5-1.3187 3m-5.23589-3.77629 5.23589 3.77629m0 0v8.5" stroke-linecap="round" stroke-linejoin="round"/></g></svg>